<svg width="24" height="24" viewBox="0 0 24 24" fill="none" xmlns="http://www.w3.org/2000/svg">
<path d="M9.76913 3.24746C10.8078 1.58418 13.2299 1.58418 14.2687 3.24746L14.9779 4.38314C15.4452 5.13147 16.2541 5.59845 17.1358 5.629L18.4739 5.67537C20.4337 5.74329 21.6448 7.84089 20.7237 9.57208L20.0948 10.7541C19.6804 11.533 19.6804 12.467 20.0948 13.2459L20.7237 14.4279C21.6448 16.1591 20.4337 18.2567 18.4739 18.3246L17.1358 18.371C16.254 18.4016 15.4452 18.8685 14.9779 19.6169L14.2687 20.7525C13.2299 22.4158 10.8078 22.4158 9.76913 20.7525L9.05989 19.6169C8.59256 18.8685 7.78373 18.4016 6.90199 18.371L5.56385 18.3246C3.60405 18.2567 2.393 16.1591 3.31408 14.4279L3.943 13.2459C4.3574 12.467 4.3574 11.533 3.943 10.7541L3.31408 9.57208C2.393 7.84089 3.60405 5.74329 5.56385 5.67537L6.90199 5.629C7.78373 5.59845 8.59256 5.13147 9.05989 4.38314L9.76913 3.24746Z" stroke="#84849D" stroke-width="1.5" stroke-linecap="round" stroke-linejoin="round"/>
<circle cx="12" cy="12" r="3" stroke="#84849D" stroke-width="1.5" stroke-linecap="round" stroke-linejoin="round"/>
</svg>
