<svg width="35" height="35" viewBox="0 0 35 35" fill="none" xmlns="http://www.w3.org/2000/svg">
<rect width="35" height="35" rx="6" fill="#307BF4"/>
<path d="M12.2141 18.9225H10.7038C10.108 18.9225 9.625 19.4533 9.625 20.108V22.4395C9.625 23.0942 10.108 23.625 10.7038 23.625H12.2141C12.8099 23.625 13.2929 23.0942 13.2929 22.4395V20.108C13.2929 19.4533 12.8099 18.9225 12.2141 18.9225Z" stroke="white" stroke-width="1.5" stroke-linecap="round" stroke-linejoin="round"/>
<path d="M18.2551 15.1488H16.7448C16.149 15.1488 15.666 15.6796 15.666 16.3343V22.4395C15.666 23.0942 16.149 23.625 16.7448 23.625H18.2551C18.8509 23.625 19.3339 23.0942 19.3339 22.4395V16.3343C19.3339 15.6796 18.8509 15.1488 18.2551 15.1488Z" stroke="white" stroke-width="1.5" stroke-linecap="round" stroke-linejoin="round"/>
<path d="M24.2942 11.375H22.7839C22.1881 11.375 21.7051 11.9058 21.7051 12.5605V22.4395C21.7051 23.0942 22.1881 23.625 22.7839 23.625H24.2942C24.89 23.625 25.373 23.0942 25.373 22.4395V12.5605C25.373 11.9058 24.89 11.375 24.2942 11.375Z" stroke="white" stroke-width="1.5" stroke-linecap="round" stroke-linejoin="round"/>
</svg>
