<svg width="19" height="13" viewBox="0 0 19 13" fill="none" xmlns="http://www.w3.org/2000/svg">
<path d="M1.625 6.96018H4.24273L6.40672 1.82331C6.48088 1.64217 6.60146 1.49072 6.75265 1.38878C6.90384 1.28685 7.07859 1.2392 7.25402 1.25206C7.42945 1.26492 7.59737 1.3377 7.73578 1.46087C7.87419 1.58404 7.97664 1.75184 8.02971 1.94231L10.6474 11.0558C10.6983 11.2394 10.795 11.4023 10.9259 11.5245C11.0568 11.6468 11.2161 11.723 11.3845 11.7441C11.5529 11.7651 11.723 11.73 11.8742 11.643C12.0253 11.556 12.1508 11.4209 12.2355 11.2541L14.7573 6.36517H17.375" stroke="#585858" stroke-width="1.5" stroke-linecap="round" stroke-linejoin="round"/>
</svg>
