<svg width="30" height="31" viewBox="0 0 30 31" fill="none" xmlns="http://www.w3.org/2000/svg">
<path d="M6.24167 14.5136L5.99528 16.4237C5.92712 16.9521 5.7402 17.4582 5.44854 17.904L4.48189 19.3817C4.11649 19.9402 3.92188 20.5932 3.92188 21.2607C3.92188 23.1563 5.45858 24.693 7.3542 24.693H16.683C18.5582 24.693 20.0784 23.1728 20.0784 21.2976C20.0784 20.6074 19.8681 19.9337 19.4754 19.366L18.4804 17.9276C18.1618 17.467 17.9581 16.9367 17.8864 16.3812L17.6455 14.5136C17.2757 11.6466 14.8344 9.5 11.9436 9.5C9.05278 9.5 6.61152 11.6466 6.24167 14.5136Z" stroke="#898997" stroke-width="1.5" stroke-linejoin="round"/>
<path d="M9.50977 26.9155C9.95307 27.8525 10.9022 28.5001 12.0015 28.5001C13.1009 28.5001 14.05 27.8525 14.4933 26.9155" stroke="#898997" stroke-width="1.5" stroke-linecap="round" stroke-linejoin="round"/>
<rect x="12.125" width="17.8743" height="18" rx="8.93716" fill="#307BF4"/>
<path d="M23.3238 12.4991V11.4521H20.1948C20.3104 11.0255 20.6377 10.7734 21.3309 10.2692L21.7449 9.97837C22.284 9.59056 22.6691 9.22214 22.9002 8.87311C23.1409 8.51438 23.2564 8.07809 23.2564 7.56424C23.2564 6.23599 22.2936 5.49915 21.1095 5.49915C19.8097 5.49915 18.7988 6.4105 18.7988 7.71937H19.8675C19.8771 7.01161 20.397 6.54624 21.0998 6.54624C21.7641 6.54624 22.1877 6.97283 22.1877 7.59333C22.1877 7.91327 22.1011 8.19444 21.9182 8.41743C21.7352 8.64042 21.4464 8.8925 21.0421 9.19305L20.6473 9.48391C20.243 9.76507 19.9156 10.0172 19.6749 10.2401C19.4342 10.4534 19.2224 10.7152 19.0491 11.0352C18.8855 11.3454 18.7988 11.7041 18.7988 12.1113V12.4991H23.3238Z" fill="#FEFEFE"/>
</svg>
