<svg width="24" height="25" viewBox="0 0 24 25" fill="none" xmlns="http://www.w3.org/2000/svg">
<g clip-path="url(#clip0_1_71)">
<path d="M3.75 21.0476V21.0472V7.97165C3.75087 7.38265 3.98518 6.81804 4.40152 6.4016C4.81785 5.98516 5.38224 5.75087 5.97093 5.75H17.0291C17.6178 5.75087 18.1821 5.98516 18.5985 6.4016L19.1234 5.8768L18.5985 6.4016C19.0149 6.81815 19.2492 7.38292 19.25 7.97209V21.0472V21.0474C19.25 21.2729 19.1867 21.4939 19.0671 21.6851C18.9476 21.8763 18.7767 22.03 18.5741 22.1286L18.8657 22.7276L18.5741 22.1286C18.3714 22.2273 18.1451 22.267 17.921 22.2431C17.6969 22.2193 17.484 22.1329 17.3066 21.9937L17.3065 21.9936L11.9627 17.8043L11.5 17.4415L11.0373 17.8043L5.69295 21.9936L5.69268 21.9938C5.51536 22.133 5.30252 22.2194 5.07846 22.2432C4.8544 22.2671 4.62815 22.2274 4.42554 22.1288C4.22292 22.0301 4.05212 21.8764 3.93266 21.6853L3.30118 22.0798L3.93265 21.6853C3.81319 21.4941 3.74989 21.2731 3.75 21.0476Z" stroke="#84849D" stroke-width="1.5"/>
<path d="M7.5 9.5H16" stroke="#84849D" stroke-linecap="round" stroke-linejoin="round"/>
</g>
<defs>
<clipPath id="clip0_1_71">
<rect width="24" height="24" fill="white" transform="translate(0 1)"/>
</clipPath>
</defs>
</svg>
