<svg width="92" height="17" viewBox="0 0 92 17" fill="none" xmlns="http://www.w3.org/2000/svg">
<path d="M7.10598 1.29997C8.40798 1.29997 9.53498 1.51697 10.487 1.95097C11.453 2.38497 12.195 3.00097 12.713 3.79897C13.231 4.59697 13.49 5.54197 13.49 6.63397C13.49 7.71197 13.231 8.65697 12.713 9.46897C12.195 10.267 11.453 10.883 10.487 11.317C9.53498 11.737 8.40798 11.947 7.10598 11.947H4.14498V16H0.742981V1.29997H7.10598ZM6.91698 9.17497C7.93898 9.17497 8.71598 8.95797 9.24798 8.52397C9.77998 8.07597 10.046 7.44597 10.046 6.63397C10.046 5.80797 9.77998 5.17797 9.24798 4.74397C8.71598 4.29597 7.93898 4.07197 6.91698 4.07197H4.14498V9.17497H6.91698Z" fill="white"/>
<path d="M21.6733 16.168C20.4833 16.168 19.4123 15.923 18.4603 15.433C17.5223 14.929 16.7873 14.236 16.2553 13.354C15.7233 12.472 15.4573 11.471 15.4573 10.351C15.4573 9.23097 15.7233 8.22997 16.2553 7.34797C16.7873 6.46597 17.5223 5.77997 18.4603 5.28997C19.4123 4.78597 20.4833 4.53397 21.6733 4.53397C22.8633 4.53397 23.9273 4.78597 24.8653 5.28997C25.8033 5.77997 26.5383 6.46597 27.0703 7.34797C27.6023 8.22997 27.8683 9.23097 27.8683 10.351C27.8683 11.471 27.6023 12.472 27.0703 13.354C26.5383 14.236 25.8033 14.929 24.8653 15.433C23.9273 15.923 22.8633 16.168 21.6733 16.168ZM21.6733 13.48C22.5133 13.48 23.1993 13.2 23.7313 12.64C24.2773 12.066 24.5503 11.303 24.5503 10.351C24.5503 9.39897 24.2773 8.64297 23.7313 8.08297C23.1993 7.50897 22.5133 7.22197 21.6733 7.22197C20.8333 7.22197 20.1403 7.50897 19.5943 8.08297C19.0483 8.64297 18.7753 9.39897 18.7753 10.351C18.7753 11.303 19.0483 12.066 19.5943 12.64C20.1403 13.2 20.8333 13.48 21.6733 13.48Z" fill="white"/>
<path d="M37.555 4.53397C38.955 4.53397 40.082 4.95397 40.936 5.79397C41.804 6.63397 42.238 7.87997 42.238 9.53197V16H38.962V10.036C38.962 9.13997 38.766 8.47497 38.374 8.04097C37.982 7.59297 37.415 7.36897 36.673 7.36897C35.847 7.36897 35.189 7.62797 34.699 8.14597C34.209 8.64997 33.964 9.40597 33.964 10.414V16H30.688V4.70197H33.817V6.02497C34.251 5.54897 34.79 5.18497 35.434 4.93297C36.078 4.66697 36.785 4.53397 37.555 4.53397Z" fill="white"/>
<path d="M57.4686 0.417969V16H54.3396V14.698C53.5276 15.678 52.3516 16.168 50.8116 16.168C49.7476 16.168 48.7816 15.93 47.9136 15.454C47.0596 14.978 46.3876 14.299 45.8976 13.417C45.4076 12.535 45.1626 11.513 45.1626 10.351C45.1626 9.18897 45.4076 8.16697 45.8976 7.28497C46.3876 6.40297 47.0596 5.72397 47.9136 5.24797C48.7816 4.77197 49.7476 4.53397 50.8116 4.53397C52.2536 4.53397 53.3806 4.98897 54.1926 5.89897V0.417969H57.4686ZM51.3786 13.48C52.2046 13.48 52.8906 13.2 53.4366 12.64C53.9826 12.066 54.2556 11.303 54.2556 10.351C54.2556 9.39897 53.9826 8.64297 53.4366 8.08297C52.8906 7.50897 52.2046 7.22197 51.3786 7.22197C50.5386 7.22197 49.8456 7.50897 49.2996 8.08297C48.7536 8.64297 48.4806 9.39897 48.4806 10.351C48.4806 11.303 48.7536 12.066 49.2996 12.64C49.8456 13.2 50.5386 13.48 51.3786 13.48Z" fill="white"/>
<path d="M66.5066 16.168C65.3166 16.168 64.2456 15.923 63.2936 15.433C62.3556 14.929 61.6206 14.236 61.0886 13.354C60.5566 12.472 60.2906 11.471 60.2906 10.351C60.2906 9.23097 60.5566 8.22997 61.0886 7.34797C61.6206 6.46597 62.3556 5.77997 63.2936 5.28997C64.2456 4.78597 65.3166 4.53397 66.5066 4.53397C67.6966 4.53397 68.7606 4.78597 69.6986 5.28997C70.6366 5.77997 71.3716 6.46597 71.9036 7.34797C72.4356 8.22997 72.7016 9.23097 72.7016 10.351C72.7016 11.471 72.4356 12.472 71.9036 13.354C71.3716 14.236 70.6366 14.929 69.6986 15.433C68.7606 15.923 67.6966 16.168 66.5066 16.168ZM66.5066 13.48C67.3466 13.48 68.0326 13.2 68.5646 12.64C69.1106 12.066 69.3836 11.303 69.3836 10.351C69.3836 9.39897 69.1106 8.64297 68.5646 8.08297C68.0326 7.50897 67.3466 7.22197 66.5066 7.22197C65.6666 7.22197 64.9736 7.50897 64.4276 8.08297C63.8816 8.64297 63.6086 9.39897 63.6086 10.351C63.6086 11.303 63.8816 12.066 64.4276 12.64C64.9736 13.2 65.6666 13.48 66.5066 13.48Z" fill="white"/>
<path d="M82.3547 16L79.8767 12.535L77.3147 16H73.7447L78.0917 10.309L73.8917 4.70197H77.5667L79.9607 7.99897L82.4177 4.70197H85.9037L81.7037 10.225L86.0717 16H82.3547Z" fill="white"/>
<path d="M89.531 16.168C88.957 16.168 88.474 15.972 88.082 15.58C87.69 15.188 87.494 14.698 87.494 14.11C87.494 13.508 87.69 13.025 88.082 12.661C88.474 12.283 88.957 12.094 89.531 12.094C90.105 12.094 90.588 12.283 90.98 12.661C91.372 13.025 91.568 13.508 91.568 14.11C91.568 14.698 91.372 15.188 90.98 15.58C90.588 15.972 90.105 16.168 89.531 16.168Z" fill="white"/>
</svg>
